<svg width="407" height="234" viewBox="0 0 407 234" fill="none" xmlns="http://www.w3.org/2000/svg">
<g clip-path="url(#clip0_1_6)">
<path d="M315 52.5C326.5 31.5 363 9.5 379 5C383 2.6 399.333 0.666667 407 0V255L44 250C29.3333 266.667 0 285.6 0 228C0 156 29.5 132 49 125C68.5 118 148 125 161.5 100C172.3 80 203.667 62 218 55.5C257.5 39.5 303.5 73.5 315 52.5Z" fill="url(#paint0_linear_1_6)"/>
<circle cx="265" cy="24" r="15" fill="url(#paint1_linear_1_6)"/>
<circle cx="124" cy="79" r="24" fill="url(#paint2_linear_1_6)"/>
</g>
<defs>
<linearGradient id="paint0_linear_1_6" x1="472" y1="-24" x2="91.5" y2="203" gradientUnits="userSpaceOnUse">
<stop offset="0.291667" stop-color="#C496E1"/>
<stop offset="1" stop-color="#166BFC"/>
</linearGradient>
<linearGradient id="paint1_linear_1_6" x1="284.791" y1="6.30198" x2="251.809" y2="19.2035" gradientUnits="userSpaceOnUse">
<stop offset="0.291667" stop-color="#C496E1"/>
<stop offset="1" stop-color="#166BFC"/>
</linearGradient>
<linearGradient id="paint2_linear_1_6" x1="155.666" y1="50.6832" x2="102.894" y2="71.3257" gradientUnits="userSpaceOnUse">
<stop offset="0.291667" stop-color="#C496E1"/>
<stop offset="1" stop-color="#166BFC"/>
</linearGradient>
<clipPath id="clip0_1_6">
<rect width="407" height="234" fill="white"/>
</clipPath>
</defs>
</svg>
